<svg width="41" height="40" viewBox="0 0 41 40" fill="none" xmlns="http://www.w3.org/2000/svg">
<path id="Vector" d="M1.20115 2.15809C1.02647 1.98341 0.921129 1.75234 0.902856 1.50767V1.42819C0.902856 1.1555 1.01118 0.893974 1.20401 0.701151C1.39683 0.508327 1.65836 0.4 1.93105 0.4H3.18215C5.04241 0.4 6.12848 1.59554 6.78789 2.88153C7.23925 3.76521 7.5699 4.85493 7.85373 5.83542L7.93732 6.1242H8.23795H37.6443C37.6444 6.1242 37.6444 6.1242 37.6445 6.1242C38.024 6.12433 38.3983 6.2124 38.7381 6.38149C39.0779 6.5506 39.3738 6.79615 39.6028 7.09888C39.8317 7.40161 39.9874 7.75327 40.0576 8.12627C40.1278 8.49928 40.1106 8.88348 40.0074 9.24872L35.7344 24.3156C35.4183 25.4273 34.7483 26.4056 33.8259 27.1021C32.9036 27.7987 31.7793 28.1754 30.6235 28.1753H30.6235H16.1159H16.1157C14.9503 28.1757 13.8171 27.7929 12.8907 27.0858C11.9643 26.3788 11.2961 25.3868 10.989 24.2626C10.9889 24.2626 10.9889 24.2625 10.9889 24.2624L9.15516 17.5358L9.1515 17.5224L9.14693 17.5093C9.13929 17.4874 9.13236 17.4652 9.12616 17.4429L9.12622 17.4429L9.12435 17.4365L6.17941 7.44774L6.17921 7.44707L5.89399 6.48584L5.88105 6.44109C5.6036 5.48094 5.34399 4.58256 4.95197 3.81925C4.71241 3.35217 4.46148 3.00706 4.16464 2.7805C3.85427 2.54361 3.52422 2.45924 3.17929 2.45924H1.92819C1.6555 2.45924 1.39397 2.35092 1.20115 2.15809ZM12.9735 23.7275L12.9736 23.7279C13.1622 24.4167 13.5719 25.0244 14.1397 25.4575C14.7075 25.8905 15.4018 26.1249 16.1159 26.1246C16.1159 26.1246 16.116 26.1246 16.1161 26.1246H30.6263H30.6267C31.3348 26.1239 32.0233 25.8924 32.588 25.4652C33.1527 25.038 33.5628 24.4384 33.7561 23.7572L33.7561 23.7572L38.0293 8.68972L38.1737 8.18059H37.6445H9.08059H8.54584L8.69687 8.69356L11.1094 16.8875L12.9735 23.7275ZM20.1061 35.7134C20.1061 36.7437 19.6969 37.7317 18.9684 38.4602C18.2399 39.1887 17.2518 39.598 16.2216 39.598C15.1913 39.598 14.2032 39.1887 13.4747 38.4602C12.7462 37.7317 12.337 36.7437 12.337 35.7134C12.337 34.6832 12.7462 33.6951 13.4747 32.9666C14.2032 32.2381 15.1913 31.8288 16.2216 31.8288C17.2518 31.8288 18.2399 32.2381 18.9684 32.9666C19.6969 33.6951 20.1061 34.6832 20.1061 35.7134ZM18.0497 35.7134C18.0497 35.2285 17.8571 34.7635 17.5143 34.4207C17.1714 34.0778 16.7064 33.8852 16.2216 33.8852C15.7367 33.8852 15.2717 34.0778 14.9288 34.4207C14.586 34.7635 14.3934 35.2285 14.3934 35.7134C14.3934 36.1983 14.586 36.6633 14.9288 37.0061C15.2717 37.349 15.7367 37.5416 16.2216 37.5416C16.7064 37.5416 17.1714 37.349 17.5143 37.0061C17.8571 36.6633 18.0497 36.1983 18.0497 35.7134ZM34.3881 35.7134C34.3881 36.7437 33.9788 37.7317 33.2503 38.4602C32.5218 39.1887 31.5337 39.598 30.5035 39.598C29.4732 39.598 28.4852 39.1887 27.7567 38.4602C27.0282 37.7317 26.6189 36.7437 26.6189 35.7134C26.6189 34.6832 27.0282 33.6951 27.7567 32.9666C28.4852 32.2381 29.4732 31.8288 30.5035 31.8288C31.5337 31.8288 32.5218 32.2381 33.2503 32.9666C33.9788 33.6951 34.3881 34.6832 34.3881 35.7134ZM32.3317 35.7134C32.3317 35.2285 32.1391 34.7635 31.7962 34.4207C31.4534 34.0778 30.9884 33.8852 30.5035 33.8852C30.0186 33.8852 29.5536 34.0778 29.2108 34.4207C28.8679 34.7635 28.6753 35.2285 28.6753 35.7134C28.6753 36.1983 28.8679 36.6633 29.2108 37.0061C29.5536 37.349 30.0186 37.5416 30.5035 37.5416C30.9884 37.5416 31.4534 37.349 31.7962 37.0061C32.1391 36.6633 32.3317 36.1983 32.3317 35.7134Z" fill="#282827" stroke="#FAFAFA" stroke-width="0.8"/>
</svg>
