<svg width="31" height="31" viewBox="0 0 31 31" fill="none" xmlns="http://www.w3.org/2000/svg">
<path d="M18.9674 14.9268L18.6139 15.2804L18.9674 15.6339L29.0689 25.7355C29.511 26.1775 29.7593 26.7771 29.7593 27.4022C29.7593 28.0274 29.511 28.6269 29.0689 29.069C28.6269 29.511 28.0273 29.7594 27.4022 29.7594C26.777 29.7594 26.1775 29.511 25.7354 29.069L15.6339 18.9675L15.2804 18.6139L14.9268 18.9675L4.82528 29.069C4.38323 29.511 3.78369 29.7594 3.15853 29.7594C2.53338 29.7594 1.93383 29.511 1.49178 29.069C1.04973 28.6269 0.801391 28.0274 0.801392 27.4022C0.801391 26.7771 1.04973 26.1775 1.49178 25.7355L11.5933 15.6339L11.9469 15.2804L11.5933 14.9268L1.49178 4.82532C1.04973 4.38327 0.801392 3.78372 0.801392 3.15856C0.801391 2.53341 1.04973 1.93386 1.49178 1.49181C1.93383 1.04976 2.53338 0.801421 3.15853 0.801422C3.78369 0.801421 4.38324 1.04976 4.82529 1.49181L14.9268 11.5933L15.2804 11.9469L15.6339 11.5933L25.7354 1.49181C26.1775 1.04976 26.777 0.80142 27.4022 0.80142C28.0273 0.801421 28.6269 1.04976 29.0689 1.49181C29.511 1.93386 29.7593 2.53341 29.7593 3.15856C29.7593 3.78372 29.511 4.38326 29.0689 4.82532L18.9674 14.9268Z" fill="#282827" stroke="#FAFAFA"/>
</svg>
