<svg width="40" height="6" viewBox="0 0 40 6" fill="none" xmlns="http://www.w3.org/2000/svg">
<g clip-path="url(#clip0_26_301)">
<path d="M19 5.20853H18.3471L18.5173 5.83886L22.3563 20.0574C22.3402 20.6597 22.0939 21.2339 21.6668 21.661C21.2247 22.103 20.6252 22.3514 20 22.3514C19.3748 22.3514 18.7753 22.103 18.3333 21.661C17.8912 21.2189 17.6429 20.6194 17.6429 19.9942V5.70853V5.20853H17.1429H2.85714C2.23199 5.20853 1.63244 4.96019 1.19039 4.51814C0.748342 4.07609 0.5 3.47654 0.5 2.85139C0.5 2.22623 0.748341 1.62668 1.19039 1.18464C1.63244 0.742584 2.23199 0.494244 2.85714 0.494244H21.0504H21.7055L21.5327 -0.137674L17.6437 -14.3554C17.6601 -14.9574 17.9063 -15.5313 18.3333 -15.9582C18.7753 -16.4003 19.3748 -16.6486 20 -16.6486C20.6252 -16.6486 21.2247 -16.4003 21.6668 -15.9582C22.1088 -15.5162 22.3571 -14.9166 22.3571 -14.2915V-0.00575638V0.494244H22.8571H37.1429C37.768 0.494244 38.3676 0.742584 38.8096 1.18464C39.2517 1.62668 39.5 2.22623 39.5 2.85139C39.5 3.47654 39.2517 4.07609 38.8096 4.51814C38.3676 4.96019 37.768 5.20853 37.1429 5.20853H19Z" fill="#282827" stroke="#FAFAFA"/>
</g>
<defs>
<clipPath id="clip0_26_301">
<rect width="40" height="5.71429" fill="white"/>
</clipPath>
</defs>
</svg>
