<svg width="40" height="40" viewBox="0 0 40 40" fill="none" xmlns="http://www.w3.org/2000/svg">
<path d="M22.8571 22.3517H22.3571V22.8517V37.1374C22.3571 37.7625 22.1088 38.3621 21.6668 38.8041C21.2247 39.2462 20.6252 39.4945 20 39.4945C19.3748 39.4945 18.7753 39.2462 18.3333 38.8041C17.8912 38.3621 17.6429 37.7625 17.6429 37.1374V22.8517V22.3517H17.1429H2.85714C2.23199 22.3517 1.63244 22.1033 1.19039 21.6613C0.748342 21.2192 0.5 20.6197 0.5 19.9945C0.5 19.3694 0.748341 18.7698 1.19039 18.3278C1.63244 17.8857 2.23199 17.6374 2.85714 17.6374H17.1429H17.6429V17.1374V2.85166C17.6429 2.22651 17.8912 1.62696 18.3333 1.18491C18.7753 0.742863 19.3748 0.494522 20 0.494522C20.6252 0.494522 21.2247 0.742863 21.6668 1.18491C22.1088 1.62696 22.3571 2.22651 22.3571 2.85166V17.1374V17.6374H22.8571H37.1429C37.768 17.6374 38.3676 17.8857 38.8096 18.3278C39.2517 18.7698 39.5 19.3694 39.5 19.9945C39.5 20.6197 39.2517 21.2192 38.8096 21.6613C38.3676 22.1033 37.768 22.3517 37.1429 22.3517H22.8571Z" fill="#282827" stroke="#FAFAFA"/>
</svg>
