<svg width="50" height="62" viewBox="0 0 50 62" fill="none" xmlns="http://www.w3.org/2000/svg">
<path fill-rule="evenodd" clip-rule="evenodd" d="M25 0C11.1937 0 0 12.4096 0 26.3506C0 40.1831 7.97812 55.2184 20.4281 60.9907C21.8591 61.6555 23.4199 62 25 62C26.5801 62 28.1409 61.6555 29.5719 60.9907C42.0219 55.2184 50 40.1831 50 26.3506C50 12.4096 38.8063 0 25 0ZM25 31.0007C26.6576 31.0007 28.2473 30.3475 29.4194 29.1847C30.5915 28.022 31.25 26.4449 31.25 24.8005C31.25 23.1562 30.5915 21.5791 29.4194 20.4164C28.2473 19.2536 26.6576 18.6004 25 18.6004C23.3424 18.6004 21.7527 19.2536 20.5806 20.4164C19.4085 21.5791 18.75 23.1562 18.75 24.8005C18.75 26.4449 19.4085 28.022 20.5806 29.1847C21.7527 30.3475 23.3424 31.0007 25 31.0007Z" fill="#6A6A67"/>
</svg>
